<svg width="13" height="16" viewBox="0 0 13 16" fill="none" xmlns="http://www.w3.org/2000/svg">
<path fill-rule="evenodd" clip-rule="evenodd" d="M1.56754 15.2482L1.56852 15.2501C1.77376 15.4171 2.25519 15.4692 2.46696 15.4962C3.43568 15.6199 4.42836 15.666 5.3986 15.6778C6.35371 15.6952 7.3092 15.6791 8.26383 15.63C8.7959 15.611 9.32747 15.5664 9.85758 15.4952C10.0211 15.4714 10.6573 15.3879 10.7492 15.2316C10.7527 15.2059 10.7538 15.1943 10.7414 15.172L10.7423 15.173C10.7552 15.1957 10.7537 15.2076 10.7502 15.2335C10.6583 15.3899 10.0222 15.4733 9.85856 15.4972C9.32846 15.5684 8.79686 15.6129 8.26481 15.6319C7.3102 15.681 6.35467 15.6971 5.39957 15.6798C4.42936 15.6679 3.43664 15.6219 2.46793 15.4982C2.25617 15.4711 1.77474 15.4191 1.5695 15.2521C1.56839 15.2512 1.5685 15.2491 1.56754 15.2482ZM7.10758 0.0137842C7.1982 -0.0739543 7.45059 0.282238 7.51676 0.375112C7.85375 0.848102 8.05825 1.49676 8.17496 2.15832C8.21648 2.39359 8.26116 2.67545 8.26578 2.92003C8.33923 2.78702 8.44235 2.59914 8.49918 2.45421C8.697 1.94979 8.81611 1.27591 8.88883 0.704214C9.3866 1.08017 9.88253 3.25267 9.95231 4.04796C10.0759 3.84717 10.207 3.66063 10.3244 3.44835C10.4633 3.19701 10.5833 2.9261 10.7121 2.66417C10.7264 2.63524 10.7359 2.63424 10.758 2.62707C10.8256 2.65153 10.8646 2.81989 10.8898 2.91027C11.0653 3.53874 11.1847 4.21064 11.2707 4.87902C11.2873 5.00814 11.3103 5.17116 11.3166 5.30089C11.3389 5.43761 11.3951 6.00909 11.3918 6.1466C11.4695 6.15966 11.8387 5.80402 11.9054 5.70714C11.923 5.6815 11.9912 5.60012 12.0138 5.57433C12.1046 5.71535 12.1517 5.87005 12.2091 6.03918C12.5755 7.117 12.5874 8.23779 12.3068 9.35656C12.1001 10.1802 11.8864 10.7783 11.4562 11.4015C11.3267 11.5916 11.1868 11.7646 11.0373 11.9181C10.8279 13.0537 10.2933 13.7968 9.63102 14.3751C9.40935 14.5687 9.23984 14.6706 9.01383 14.8253L9.01188 14.8243C8.9393 14.8534 8.78934 14.9519 8.70719 14.9933C8.47183 15.1103 8.23253 15.2089 7.99039 15.2892C6.91454 15.6452 5.53187 15.6834 4.44645 15.3644C4.02894 15.2442 3.62009 15.0635 3.22575 14.8253H3.22379C2.25187 14.2156 1.36889 13.2189 1.1945 11.5616C1.00613 11.3316 0.8337 11.1087 0.676917 10.8302C0.367036 10.2798 0.134038 9.57588 0.0470342 8.86925C-0.067313 7.94047 0.0362377 7.07336 0.256019 6.20128C0.302933 6.02015 0.338324 5.82484 0.407386 5.65929C0.429981 5.60525 0.470018 5.59686 0.49723 5.64757C0.657781 5.9483 0.817807 6.21766 1.01774 6.46105C1.14803 5.59249 1.45757 4.7315 1.71305 3.93468C1.76881 3.75924 1.82337 3.58285 1.87614 3.40539C1.90522 3.30665 1.93371 3.20737 1.96403 3.10949C1.97343 3.05528 2.03169 3.04108 2.0568 3.08019C2.29391 3.44977 2.39021 4.16543 2.4484 4.62511C2.69688 3.97664 2.72109 3.40089 2.71305 2.66808C2.71155 2.53296 2.70016 2.17878 2.71598 2.06164C2.77479 1.98786 2.89061 2.05875 2.95231 2.10265C3.48414 2.48131 3.8732 3.34751 4.07926 4.1505C4.51032 3.47461 4.80056 2.66154 4.85075 1.71691C4.85832 1.57086 4.86015 1.42379 4.85563 1.27746C4.85294 1.19966 4.83574 1.0434 4.84196 0.978628C4.85607 0.958522 4.8766 0.943466 4.89664 0.948354C5.37167 1.06422 5.73366 1.47117 6.06364 1.96496C6.3808 1.54866 6.67607 1.08788 6.91617 0.566519C6.9967 0.391706 7.03725 0.167262 7.10758 0.0137842Z" fill="#010000"/>
<path d="M6.06327 1.9644C6.38043 1.5481 6.67535 1.08745 6.91546 0.566087C6.996 0.391268 7.03719 0.167339 7.10753 0.0138471C7.19809 -0.0741097 7.44987 0.282099 7.51605 0.374994C7.85308 0.847992 8.05823 1.49599 8.17495 2.15759C8.21651 2.39308 8.26069 2.67536 8.26527 2.92017C8.33873 2.78714 8.44249 2.59934 8.49939 2.45427C8.69727 1.94976 8.81564 1.27547 8.88836 0.703678C9.38629 1.07916 9.88275 3.25292 9.95242 4.04804C10.076 3.84716 10.2063 3.66004 10.3237 3.44768C10.4626 3.19633 10.583 2.92629 10.7117 2.66436C10.7261 2.63503 10.7352 2.63381 10.7574 2.6266C10.8253 2.65061 10.8647 2.81946 10.89 2.90997C11.0655 3.53855 11.1845 4.21059 11.2705 4.87908C11.2871 5.00821 11.3104 5.17089 11.3166 5.30062C11.339 5.43739 11.3949 6.0092 11.3916 6.14646C11.4694 6.15954 11.8395 5.80302 11.9056 5.70665C11.9232 5.68098 11.9909 5.59958 12.0134 5.57385C12.1044 5.71502 12.1512 5.86999 12.2088 6.03933C12.5752 7.11727 12.5868 8.23767 12.3062 9.35655C12.0995 10.1802 11.8866 10.7783 11.4564 11.4014C11.3268 11.5916 11.1864 11.7644 11.0368 11.918C11.1212 11.2994 11.1224 10.9702 11.0414 10.3546C10.9959 10.0886 10.9372 9.82814 10.8657 9.57527C10.7433 9.15073 10.5827 8.72424 10.425 8.32659C10.175 7.69586 9.8962 6.956 9.57109 6.41083C9.34064 6.02344 9.07377 5.68856 8.77879 5.4168C7.95501 4.65151 6.83119 4.3275 5.87138 4.40694C5.53166 4.43505 5.21835 4.51847 4.88872 4.63391C4.60174 4.74611 4.13553 4.99214 3.88577 5.24495C3.59615 5.51415 3.37217 5.78273 3.1489 6.17573C2.86385 6.67739 2.69962 7.27622 2.45286 7.81741C2.07649 8.64284 1.57519 9.2416 1.31846 10.1902C1.21977 10.5722 1.15708 11.1484 1.19407 11.5618C1.00562 11.3317 0.833206 11.1085 0.676365 10.8299C0.366484 10.2795 0.134117 9.57557 0.0471132 8.86895C-0.0672496 7.94006 0.0359361 7.0729 0.255764 6.20073C0.302679 6.01959 0.337989 5.82465 0.40705 5.6591C0.429667 5.6049 0.469603 5.59665 0.496834 5.64761C0.657452 5.94846 0.817904 6.21741 1.01795 6.46087C1.14824 5.59231 1.45766 4.73168 1.71314 3.93486C1.76894 3.75929 1.82326 3.58268 1.87606 3.40509C1.90517 3.30627 1.93325 3.20685 1.9636 3.10888C1.973 3.05468 2.03164 3.04044 2.05676 3.07955C2.29398 3.44915 2.39022 4.16531 2.44841 4.62504C2.69692 3.97654 2.72072 3.40112 2.71268 2.66828C2.7112 2.5334 2.69956 2.17801 2.71546 2.06102C2.77434 1.98715 2.89077 2.05849 2.9524 2.10238C3.48423 2.48103 3.87293 3.34703 4.079 4.15003C4.51014 3.47402 4.80084 2.661 4.85095 1.71616C4.85853 1.57011 4.85999 1.42351 4.85547 1.27718C4.85278 1.19919 4.83555 1.04234 4.84191 0.97787C4.85602 0.957765 4.87631 0.94286 4.89636 0.947749C5.37143 1.06358 5.73327 1.47058 6.06327 1.9644Z" fill="#B43127"/>
<path d="M6.93808 2.03516C7.12912 2.59587 7.65516 3.91904 7.98339 4.29799C8.3407 4.0805 8.6806 3.47483 8.92333 3.04553C8.98004 3.25171 9.04445 3.45644 9.09731 3.6633C9.31047 4.49783 9.39822 5.20714 9.41344 6.09477C9.77552 5.8188 10.0611 5.59061 10.3764 5.18111C10.4639 5.65838 10.5708 6.08218 10.6308 6.5792C10.6753 6.94819 10.7068 7.33551 10.757 7.69704C11.0156 7.43121 11.2053 7.28045 11.4944 7.10463C11.6216 8.04427 11.6169 9.14897 11.2517 9.97207C11.2048 10.0777 11.106 10.2719 11.0414 10.3564C10.9958 10.0904 10.9371 9.82999 10.8657 9.57711C10.7433 9.15258 10.5826 8.72608 10.4249 8.32844C10.175 7.69771 9.89615 6.95784 9.57105 6.41267C9.3406 6.02529 9.07373 5.6904 8.77874 5.41864C7.95497 4.65335 6.83114 4.32934 5.87133 4.40879C5.53162 4.4369 5.2183 4.52031 4.88867 4.63575C4.89961 4.57617 5.00063 4.37951 5.02874 4.29921C5.17137 3.89258 5.314 3.29865 5.35232 2.8427C5.4908 3.04302 5.90965 3.69214 6.04214 3.79169C6.3637 3.44275 6.75329 2.55817 6.93808 2.03516Z" fill="#F0C54E"/>
<path d="M3.24895 3.96094C3.37974 4.27798 3.55091 4.61855 3.70142 4.91683C3.75389 5.02084 3.82901 5.13897 3.88669 5.24665C3.59707 5.51584 3.37309 5.78442 3.14982 6.17743C2.86477 6.67909 2.70054 7.27791 2.45378 7.81911C2.07741 8.64453 1.57611 9.2433 1.31938 10.1919C0.871992 9.31241 0.783857 8.5074 0.860753 7.42879C1.0412 7.733 1.4102 8.1408 1.66251 8.26015C1.60044 7.27602 1.6361 6.62219 1.80426 5.65774C2.07372 5.90365 2.3924 6.13049 2.68392 6.31059C2.74421 5.95651 2.81265 5.60445 2.90885 5.26822C3.03632 4.82266 3.16501 4.43241 3.24895 3.96094Z" fill="#F0C54E"/>
<path d="M7.49076 4.96094C7.69017 5.03604 7.87179 5.13798 8.05983 5.2572C8.87999 5.77719 9.37579 6.57261 9.82599 7.70047C9.95163 8.01709 10.0748 8.33597 10.1955 8.65698C10.5518 9.60432 10.8914 10.7008 10.6888 11.7981C10.2142 14.3679 7.88798 15.168 6.36669 15.2249C4.75691 15.2852 2.73931 14.7895 1.79355 12.6226C1.52182 11.9935 1.45312 11.1489 1.61054 10.4339C1.68655 10.0782 1.84956 9.65303 2.00669 9.36544C2.03882 9.28489 2.21098 8.98264 2.25639 8.90198C2.40496 8.63798 2.53652 8.39274 2.67389 8.11529C2.67701 8.23251 2.66946 8.36774 2.72267 8.45098C2.77562 8.46925 2.84482 8.47945 2.86265 8.57045C3.02401 9.39379 3.35048 9.82353 3.9302 9.91348C4.51692 10.0046 5.26455 9.95993 5.67369 9.21816C5.8181 8.94396 5.78479 8.65588 6.05942 8.59697C6.39816 8.52425 6.43275 8.84178 6.59469 9.17526C6.91675 9.84241 7.46656 9.96035 7.97733 9.97581C8.59216 9.99439 9.17192 9.75215 9.44967 8.85229C9.5153 8.63963 9.46825 8.535 9.6429 8.50304C9.69411 8.48856 9.72516 8.45617 9.73273 8.37434C9.74502 8.25848 9.7606 8.06897 9.71061 7.96985C9.64926 7.84812 9.4677 7.83645 9.37004 7.81616L9.38098 7.80534C9.38239 7.75126 9.05465 6.9911 9.00985 6.91447C8.99317 6.88593 8.97899 6.87206 8.95528 6.85996C8.88843 6.90139 8.76028 7.02367 8.69257 6.94276C8.67704 6.81345 8.84834 6.73278 8.91464 6.7062C8.87413 6.59736 8.79383 6.46084 8.73944 6.36361C8.47507 5.89098 8.18137 5.51497 7.82351 5.21039C7.75012 5.14788 7.52798 5.0127 7.49076 4.96094Z" fill="#FFB95D"/>
<path d="M7.49076 4.96094C7.69017 5.03604 7.87179 5.13798 8.05983 5.2572C8.87999 5.77719 9.37579 6.57261 9.82599 7.70047C9.95163 8.01709 10.0748 8.33597 10.1955 8.65698C10.5518 9.60432 10.8914 10.7008 10.6888 11.7981C10.2142 14.3679 7.88798 15.168 6.36669 15.2249C4.75691 15.2852 2.73931 14.7895 1.79355 12.6226C1.52182 11.9935 1.45312 11.1489 1.61054 10.4339C1.60664 10.593 1.60218 10.7264 1.61173 10.8861C1.64936 11.5152 1.869 12.0914 2.15212 12.5485C2.8899 13.7398 4.10314 14.2701 5.15957 14.3266C6.59396 14.3928 8.13817 13.8067 9.21861 12.3295C9.4834 11.9675 9.72167 11.5113 9.84169 11.0028C9.86773 10.8925 9.90928 10.7073 9.90586 10.5904L9.90122 10.5658C9.90476 10.5251 9.91148 10.5201 9.93079 10.4909C9.96636 10.2831 9.91491 9.28813 9.81731 9.14611C9.76011 9.17484 9.67755 9.22409 9.63606 9.13499L9.64015 9.10113C9.67633 9.0264 9.71996 9.01796 9.78016 8.98826C9.76201 8.84917 9.68812 8.62918 9.6429 8.50304C9.69411 8.48856 9.72516 8.45617 9.73273 8.37434C9.74502 8.25848 9.7606 8.06897 9.71061 7.96985C9.64926 7.84812 9.4677 7.83645 9.37004 7.81616L9.38098 7.80534C9.38239 7.75126 9.05465 6.9911 9.00985 6.91447C8.99317 6.88593 8.97899 6.87206 8.95528 6.85996C8.88843 6.90139 8.76028 7.02367 8.69257 6.94276C8.67704 6.81345 8.84834 6.73278 8.91464 6.7062C8.87413 6.59736 8.79383 6.46084 8.73944 6.36361C8.47507 5.89098 8.18137 5.51497 7.82351 5.21039C7.75012 5.14788 7.52798 5.0127 7.49076 4.96094Z" fill="#DE9E4C"/>
<path d="M3.03125 7.26978C3.28155 6.60007 3.46468 6.15573 3.89055 5.68512C4.52983 4.9788 5.37872 4.70233 6.16088 4.70313C6.31133 4.70331 6.52168 4.71101 6.66865 4.7423C6.71607 4.7467 6.76343 4.75299 6.81061 4.76118C6.99388 4.79626 7.31862 4.87002 7.49297 4.96169C7.53019 5.01345 7.75233 5.14862 7.82572 5.21114C8.18358 5.51572 8.47728 5.89173 8.74165 6.36436C8.79604 6.46159 8.87634 6.59811 8.91685 6.70695C8.85055 6.73353 8.67925 6.8142 8.69478 6.94351C8.76249 7.02442 8.89064 6.90214 8.95749 6.86071C8.9812 6.87281 8.99538 6.88668 9.01206 6.91522C9.05686 6.99185 9.3846 7.75201 9.38319 7.80609L9.37225 7.81691C8.82806 7.74302 8.28099 7.73007 7.73552 7.77804C7.48888 7.80297 7.19976 7.85559 6.95263 7.90191C6.83554 7.92245 6.71919 7.95147 6.60399 7.98875C6.40336 8.05536 6.20304 8.16096 5.99588 8.10419C5.88496 8.07382 5.77722 8.02566 5.66716 7.98955C5.52221 7.94359 5.37621 7.90558 5.22943 7.87557C4.81699 7.79136 4.39936 7.78073 3.9835 7.77193C3.6962 7.76588 3.39645 7.76435 3.11082 7.79766C3.17479 7.67611 3.24255 7.50378 3.28505 7.36285C3.23865 7.37049 3.17987 7.38724 3.12899 7.39628C3.08588 7.36041 3.05056 7.33737 3.03125 7.26978Z" fill="#FFB95D"/>
<path d="M5.80594 10.0988C6.03963 10.0648 6.04115 10.2108 6.21184 10.3083C6.35887 10.2256 6.46697 10.1257 6.62617 10.2163C6.66699 10.2396 6.76593 10.2878 6.73549 10.3705C6.62556 10.4805 6.58217 10.3108 6.44754 10.3523C6.32611 10.4358 6.17548 10.5383 6.05441 10.3974C5.99282 10.3257 5.93788 10.2619 5.8566 10.2509C5.77269 10.2394 5.58661 10.5055 5.53516 10.3414C5.54359 10.2082 5.72992 10.1195 5.80594 10.0988Z" fill="#010000"/>
<path d="M2.80664 7.84624C2.88938 7.64848 2.95292 7.45482 3.03056 7.26562C3.04987 7.33321 3.08518 7.35625 3.1283 7.39212C3.17918 7.38308 3.23795 7.36634 3.28436 7.3587C3.24185 7.49962 3.1741 7.67195 3.11012 7.7935C3.00968 7.80866 2.90601 7.82161 2.80664 7.84624Z" fill="#FFB95D"/>
<path d="M9.05688 8.96875C9.06452 8.97926 9.06317 8.98232 9.06739 8.99961C9.0592 9.0771 9.01471 9.1761 8.97811 9.23141C8.77791 9.53464 8.50266 9.64568 8.22956 9.66004L8.22461 9.6513C8.22864 9.64531 8.47119 9.53659 8.5136 9.50976C8.72419 9.37648 8.87324 9.16003 9.05688 8.96875Z" fill="#4D4C4B"/>
<path d="M5.40898 9.06641C5.29422 9.43454 5.0367 9.55713 4.79091 9.64708L4.72852 9.63798C5.00388 9.51252 5.18782 9.33914 5.40898 9.06641Z" fill="#4D4C4B"/>
<path d="M4.79114 9.64583C4.7475 9.6611 4.69842 9.67632 4.6543 9.66593C4.67716 9.64576 4.70166 9.64387 4.72874 9.63672L4.79114 9.64583Z" fill="#393939"/>
</svg>
