<svg width="14" height="13" viewBox="0 0 14 13" fill="none" xmlns="http://www.w3.org/2000/svg">
<path d="M9.76875 10.4625C10.1367 10.4625 10.4897 10.6087 10.7499 10.8689C11.0101 11.1291 11.1562 11.482 11.1562 11.85C11.1562 11.482 11.3024 11.1291 11.5626 10.8689C11.8228 10.6087 12.1758 10.4625 12.5437 10.4625C12.1758 10.4625 11.8228 10.3163 11.5626 10.0561C11.3024 9.7959 11.1562 9.44299 11.1562 9.075C11.1562 9.44299 11.0101 9.7959 10.7499 10.0561C10.4897 10.3163 10.1367 10.4625 9.76875 10.4625ZM9.76875 2.1375C10.1367 2.1375 10.4897 2.28368 10.7499 2.54389C11.0101 2.8041 11.1562 3.15701 11.1562 3.525C11.1562 3.15701 11.3024 2.8041 11.5626 2.54389C11.8228 2.28368 12.1758 2.1375 12.5437 2.1375C12.1758 2.1375 11.8228 1.99132 11.5626 1.73111C11.3024 1.4709 11.1562 1.11799 11.1562 0.75C11.1562 0.932209 11.1204 1.11263 11.0506 1.28097C10.9809 1.44931 10.8787 1.60227 10.7499 1.73111C10.621 1.85995 10.4681 1.96215 10.2997 2.03188C10.1314 2.10161 9.95096 2.1375 9.76875 2.1375ZM4.9125 10.4625C4.9125 9.35854 5.35105 8.29979 6.13167 7.51917C6.91229 6.73855 7.97104 6.3 9.075 6.3C7.97104 6.3 6.91229 5.86145 6.13167 5.08083C5.35105 4.30021 4.9125 3.24146 4.9125 2.1375C4.9125 3.24146 4.47395 4.30021 3.69333 5.08083C2.91271 5.86145 1.85396 6.3 0.75 6.3C1.85396 6.3 2.91271 6.73855 3.69333 7.51917C4.47395 8.29979 4.9125 9.35854 4.9125 10.4625Z" fill="#EC4D41" stroke="#EC4D41" stroke-width="1.5" stroke-linecap="round" stroke-linejoin="round"/>
</svg>
